<svg viewBox="0 0 94 94" xmlns="http://www.w3.org/2000/svg" fill-rule="evenodd" 
clip-rule="evenodd" stroke-linejoin="round" stroke-miterlimit="1.414">
<path d="M 46.00,0.00
           C 46.00,0.00 50.00,0.00 50.00,0.00
             50.00,0.00 50.00,8.00 50.00,8.00
             50.00,8.00 58.00,8.00 58.00,8.00
             58.00,8.00 58.00,12.00 58.00,12.00
             58.00,12.00 50.00,12.00 50.00,12.00
             50.00,12.00 50.00,21.00 50.00,21.00
             50.00,21.00 46.00,21.00 46.00,21.00
             46.00,21.00 46.00,12.00 46.00,12.00
             46.00,12.00 38.00,12.00 38.00,12.00
             38.00,12.00 38.00,8.00 38.00,8.00
             38.00,8.00 46.00,8.00 46.00,8.00
             46.00,8.00 46.00,0.00 46.00,0.00 Z
           M 21.00,9.00
           C 21.00,9.00 26.00,9.00 26.00,9.00
             26.00,9.00 26.00,21.00 26.00,21.00
             26.00,21.00 38.00,21.00 38.00,21.00
             38.00,21.00 38.00,26.00 38.00,26.00
             38.00,26.00 26.00,26.00 26.00,26.00
             26.00,26.00 26.00,39.00 26.00,39.00
             26.00,39.00 21.00,39.00 21.00,39.00
             21.00,39.00 21.00,26.00 21.00,26.00
             21.00,26.00 9.00,26.00 9.00,26.00
             10.18,19.30 15.22,21.00 21.00,21.00
             21.00,21.00 21.00,9.00 21.00,9.00 Z
           M 70.00,9.00
           C 70.00,9.00 75.00,9.00 75.00,9.00
             75.00,9.00 75.00,21.00 75.00,21.00
             75.00,21.00 87.00,21.00 87.00,21.00
             87.00,21.00 87.00,26.00 87.00,26.00
             87.00,26.00 75.00,26.00 75.00,26.00
             75.00,26.00 75.00,39.00 75.00,39.00
             75.00,39.00 70.00,39.00 70.00,39.00
             70.00,39.00 70.00,26.00 70.00,26.00
             70.00,26.00 58.00,26.00 58.00,26.00
             58.00,26.00 58.00,21.00 58.00,21.00
             58.00,21.00 70.00,21.00 70.00,21.00
             70.00,21.00 70.00,9.00 70.00,9.00 Z
           M 45.00,29.00
           C 45.00,29.00 51.00,29.00 51.00,29.00
             51.00,29.00 51.00,43.00 51.00,43.00
             51.00,43.00 64.00,43.00 64.00,43.00
             64.00,43.00 64.00,49.00 64.00,49.00
             64.00,49.00 51.00,49.00 51.00,49.00
             51.00,49.00 51.00,64.00 51.00,64.00
             51.00,64.00 45.00,64.00 45.00,64.00
             45.00,64.00 45.00,49.00 45.00,49.00
             45.00,49.00 32.00,49.00 32.00,49.00
             32.00,49.00 32.00,43.00 32.00,43.00
             32.00,43.00 45.00,43.00 45.00,43.00
             45.00,43.00 45.00,29.00 45.00,29.00 Z
           M 83.00,35.00
           C 83.00,35.00 88.00,35.00 88.00,35.00
             88.00,35.00 88.00,44.00 88.00,44.00
             88.00,44.00 94.00,44.00 94.00,44.00
             94.00,44.00 94.00,49.00 94.00,49.00
             94.00,49.00 88.00,49.00 88.00,49.00
             88.00,49.00 88.00,57.00 88.00,57.00
             88.00,57.00 83.00,57.00 83.00,57.00
             83.00,57.00 83.00,49.00 83.00,49.00
             83.00,49.00 75.00,49.00 75.00,49.00
             75.00,49.00 75.00,44.00 75.00,44.00
             75.00,44.00 83.00,44.00 83.00,44.00
             83.00,44.00 83.00,35.00 83.00,35.00 Z
           M 8.00,36.00
           C 8.00,36.00 12.00,36.00 12.00,36.00
             12.00,36.00 12.00,45.00 12.00,45.00
             12.00,45.00 20.00,45.00 20.00,45.00
             20.00,45.00 20.00,48.00 20.00,48.00
             20.00,48.00 12.00,48.00 12.00,48.00
             12.00,48.00 12.00,57.00 12.00,57.00
             12.00,57.00 8.00,57.00 8.00,57.00
             8.00,57.00 8.00,48.00 8.00,48.00
             8.00,48.00 0.00,48.00 0.00,48.00
             0.00,48.00 0.00,45.00 0.00,45.00
             0.00,45.00 8.00,45.00 8.00,45.00
             8.00,45.00 8.00,36.00 8.00,36.00 Z
           M 21.00,54.00
           C 21.00,54.00 26.00,54.00 26.00,54.00
             26.00,54.00 26.00,66.00 26.00,66.00
             26.00,66.00 38.00,66.00 38.00,66.00
             38.00,66.00 38.00,71.00 38.00,71.00
             38.00,71.00 26.00,71.00 26.00,71.00
             26.00,71.00 26.00,84.00 26.00,84.00
             26.00,84.00 21.00,84.00 21.00,84.00
             21.00,84.00 21.00,71.00 21.00,71.00
             21.00,71.00 9.00,71.00 9.00,71.00
             9.00,71.00 9.00,66.00 9.00,66.00
             9.00,66.00 21.00,66.00 21.00,66.00
             21.00,66.00 21.00,54.00 21.00,54.00 Z
           M 70.00,54.00
           C 70.00,54.00 75.00,54.00 75.00,54.00
             75.00,54.00 75.00,66.00 75.00,66.00
             75.00,66.00 87.00,66.00 87.00,66.00
             87.00,66.00 87.00,71.00 87.00,71.00
             87.00,71.00 75.00,71.00 75.00,71.00
             75.00,71.00 75.00,84.00 75.00,84.00
             75.00,84.00 70.00,84.00 70.00,84.00
             70.00,84.00 70.00,71.00 70.00,71.00
             70.00,71.00 58.00,71.00 58.00,71.00
             58.00,71.00 58.00,66.00 58.00,66.00
             58.00,66.00 70.00,66.00 70.00,66.00
             70.00,66.00 70.00,54.00 70.00,54.00 Z
           M 46.00,72.00
           C 46.00,72.00 50.00,72.00 50.00,72.00
             50.00,72.00 50.00,80.00 50.00,80.00
             50.00,80.00 58.00,80.00 58.00,80.00
             58.00,80.00 58.00,85.00 58.00,85.00
             58.00,85.00 50.00,85.00 50.00,85.00
             50.00,85.00 50.00,94.00 50.00,94.00
             50.00,94.00 46.00,94.00 46.00,94.00
             46.00,94.00 46.00,85.00 46.00,85.00
             46.00,85.00 38.00,85.00 38.00,85.00
             38.00,85.00 38.00,80.00 38.00,80.00
             38.00,80.00 46.00,80.00 46.00,80.00
             46.00,80.00 46.00,72.00 46.00,72.00 Z" fill-rule="nonzero"/>
</svg>